<?xml version="1.0" encoding="UTF-8" standalone="no"?><svg xmlns="http://www.w3.org/2000/svg" xmlns:xlink="http://www.w3.org/1999/xlink" contentStyleType="text/css" height="567px" preserveAspectRatio="none" style="width:813px;height:567px;background:#FFFFFF;" version="1.1" viewBox="0 0 813 567" width="813px" zoomAndPan="magnify"><defs/><g><!--MD5=[ee55a0b25e08f727e516fac9160d5e85]
cluster classique--><g id="cluster_classique"><rect fill="#FFFFFF" height="414" rx="2.5" ry="2.5" style="stroke:#000000;stroke-width:1.5;" width="388" x="7" y="7"/><text fill="#000000" font-family="sans-serif" font-size="14" font-weight="bold" lengthAdjust="spacing" textLength="174" x="114" y="21.9951">Classique : en couche</text></g><!--MD5=[1be783dd002b1f1485deb22bb6950fab]
cluster classique.API--><g id="cluster_classique.API"><rect fill="#FFFFFF" height="83" rx="2.5" ry="2.5" style="stroke:#000000;stroke-width:1.5;" width="196" x="103" y="50"/><text fill="#000000" font-family="sans-serif" font-size="14" font-weight="bold" lengthAdjust="spacing" textLength="26" x="188" y="64.9951">API</text></g><!--MD5=[b02403d05df38818bfa022f93cba2339]
cluster classique.Domaine--><g id="cluster_classique.Domaine"><rect fill="#FFFFFF" height="83" rx="2.5" ry="2.5" style="stroke:#000000;stroke-width:1.5;" width="130" x="136" y="182"/><text fill="#000000" font-family="sans-serif" font-size="14" font-weight="bold" lengthAdjust="spacing" textLength="70" x="166" y="196.9951">Domaine</text></g><!--MD5=[e8e9c607e36e7589ea729fa379908e68]
cluster classique.Persistance--><g id="cluster_classique.Persistance"><rect fill="#FFFFFF" height="83" rx="2.5" ry="2.5" style="stroke:#000000;stroke-width:1.5;" width="340" x="31" y="314"/><text fill="#000000" font-family="sans-serif" font-size="14" font-weight="bold" lengthAdjust="spacing" textLength="95" x="153.5" y="328.9951">Persistance</text></g><!--MD5=[13c2d36e5d15e5852a8852d273f1a3fe]
cluster hex--><g id="cluster_hex"><rect fill="#FFFFFF" height="554" rx="2.5" ry="2.5" style="stroke:#000000;stroke-width:1.5;" width="388" x="419" y="7"/><text fill="#000000" font-family="sans-serif" font-size="14" font-weight="bold" lengthAdjust="spacing" textLength="170" x="528" y="21.9951">Centrée sur le métier</text></g><!--MD5=[fac864e77539af95038f0151207ed802]
cluster API--><g id="cluster_API"><rect fill="#FFFFFF" height="83" rx="2.5" ry="2.5" style="stroke:#000000;stroke-width:1.5;" width="196" x="515" y="50"/><text fill="#000000" font-family="sans-serif" font-size="14" font-weight="bold" lengthAdjust="spacing" textLength="26" x="600" y="64.9951">API</text></g><!--MD5=[81d8fddc0472df4f6601fb2b1deb463c]
cluster Domaine--><g id="cluster_Domaine"><path d="M502,289.5 L529.75,182 L696.25,182 L724,289.5 L696.25,397 L529.75,397 L502,289.5 " fill="#FFFFFF" style="stroke:#181818;stroke-width:1.0;"/><text fill="#000000" font-family="sans-serif" font-size="14" font-weight="bold" lengthAdjust="spacing" textLength="70" x="578" y="196.9951">Domaine</text></g><!--MD5=[c5d177b2fa847c48384a4f399638f91d]
cluster Persistance--><g id="cluster_Persistance"><rect fill="#FFFFFF" height="83" rx="2.5" ry="2.5" style="stroke:#000000;stroke-width:1.5;" width="340" x="443" y="454"/><text fill="#000000" font-family="sans-serif" font-size="14" font-weight="bold" lengthAdjust="spacing" textLength="95" x="565.5" y="468.9951">Persistance</text></g><!--MD5=[dc1e052cdb3166dc54836dd9fa5d7256]
class classique.API.CourtageResource--><g id="elem_classique.API.CourtageResource"><rect codeLine="8" fill="#F1F1F1" height="32" id="classique.API.CourtageResource" rx="2.5" ry="2.5" style="stroke:#181818;stroke-width:0.5;" width="164" x="119" y="85"/><ellipse cx="134" cy="101" fill="#ADD1B2" rx="11" ry="11" style="stroke:#181818;stroke-width:1.0;"/><path d="M136.3438,96.6719 C135.4063,96.2344 134.8125,96.0938 133.9375,96.0938 C131.3125,96.0938 129.3125,98.1719 129.3125,100.8906 L129.3125,102.0156 C129.3125,104.5938 131.4219,106.4844 134.3125,106.4844 C135.5313,106.4844 136.6875,106.1875 137.4375,105.6406 C138.0156,105.2344 138.3438,104.7813 138.3438,104.3906 C138.3438,103.9375 137.9531,103.5469 137.4844,103.5469 C137.2656,103.5469 137.0625,103.625 136.875,103.8125 C136.4219,104.2969 136.4219,104.2969 136.2344,104.3906 C135.8125,104.6563 135.125,104.7813 134.3594,104.7813 C132.3125,104.7813 131.0156,103.6875 131.0156,101.9844 L131.0156,100.8906 C131.0156,99.1094 132.2656,97.7969 134,97.7969 C134.5781,97.7969 135.1875,97.9531 135.6563,98.2031 C136.1406,98.4844 136.3125,98.7031 136.4063,99.1094 C136.4688,99.5156 136.5,99.6406 136.6406,99.7656 C136.7813,99.9063 137.0156,100.0156 137.2344,100.0156 C137.5,100.0156 137.7656,99.875 137.9375,99.6563 C138.0469,99.5 138.0781,99.3125 138.0781,98.8906 L138.0781,97.4688 C138.0781,97.0313 138.0625,96.9063 137.9688,96.75 C137.8125,96.4844 137.5313,96.3438 137.2344,96.3438 C136.9375,96.3438 136.7344,96.4375 136.5156,96.75 L136.3438,96.6719 Z " fill="#000000"/><text fill="#000000" font-family="sans-serif" font-size="14" lengthAdjust="spacing" textLength="132" x="148" y="105.8467">CourtageResource</text></g><!--MD5=[ce94497de865509cef312059b367c0fa]
class classique.Domaine.Courtage--><g id="elem_classique.Domaine.Courtage"><rect codeLine="11" fill="#F1F1F1" height="32" id="classique.Domaine.Courtage" rx="2.5" ry="2.5" style="stroke:#181818;stroke-width:0.5;" width="98" x="152" y="217"/><ellipse cx="167" cy="233" fill="#ADD1B2" rx="11" ry="11" style="stroke:#181818;stroke-width:1.0;"/><path d="M169.3438,228.6719 C168.4063,228.2344 167.8125,228.0938 166.9375,228.0938 C164.3125,228.0938 162.3125,230.1719 162.3125,232.8906 L162.3125,234.0156 C162.3125,236.5938 164.4219,238.4844 167.3125,238.4844 C168.5313,238.4844 169.6875,238.1875 170.4375,237.6406 C171.0156,237.2344 171.3438,236.7813 171.3438,236.3906 C171.3438,235.9375 170.9531,235.5469 170.4844,235.5469 C170.2656,235.5469 170.0625,235.625 169.875,235.8125 C169.4219,236.2969 169.4219,236.2969 169.2344,236.3906 C168.8125,236.6563 168.125,236.7813 167.3594,236.7813 C165.3125,236.7813 164.0156,235.6875 164.0156,233.9844 L164.0156,232.8906 C164.0156,231.1094 165.2656,229.7969 167,229.7969 C167.5781,229.7969 168.1875,229.9531 168.6563,230.2031 C169.1406,230.4844 169.3125,230.7031 169.4063,231.1094 C169.4688,231.5156 169.5,231.6406 169.6406,231.7656 C169.7813,231.9063 170.0156,232.0156 170.2344,232.0156 C170.5,232.0156 170.7656,231.875 170.9375,231.6563 C171.0469,231.5 171.0781,231.3125 171.0781,230.8906 L171.0781,229.4688 C171.0781,229.0313 171.0625,228.9063 170.9688,228.75 C170.8125,228.4844 170.5313,228.3438 170.2344,228.3438 C169.9375,228.3438 169.7344,228.4375 169.5156,228.75 L169.3438,228.6719 Z " fill="#000000"/><text fill="#000000" font-family="sans-serif" font-size="14" lengthAdjust="spacing" textLength="66" x="181" y="237.8467">Courtage</text></g><!--MD5=[1675684cebcea517a5194610cad16d7b]
class classique.Persistance.PortefeuilleRepositorySpringDataImpl--><g id="elem_classique.Persistance.PortefeuilleRepositorySpringDataImpl"><rect codeLine="14" fill="#F1F1F1" height="32" id="classique.Persistance.PortefeuilleRepositorySpringDataImpl" rx="2.5" ry="2.5" style="stroke:#181818;stroke-width:0.5;" width="308" x="47" y="349"/><ellipse cx="62" cy="365" fill="#ADD1B2" rx="11" ry="11" style="stroke:#181818;stroke-width:1.0;"/><path d="M64.3438,360.6719 C63.4063,360.2344 62.8125,360.0938 61.9375,360.0938 C59.3125,360.0938 57.3125,362.1719 57.3125,364.8906 L57.3125,366.0156 C57.3125,368.5938 59.4219,370.4844 62.3125,370.4844 C63.5313,370.4844 64.6875,370.1875 65.4375,369.6406 C66.0156,369.2344 66.3438,368.7813 66.3438,368.3906 C66.3438,367.9375 65.9531,367.5469 65.4844,367.5469 C65.2656,367.5469 65.0625,367.625 64.875,367.8125 C64.4219,368.2969 64.4219,368.2969 64.2344,368.3906 C63.8125,368.6563 63.125,368.7813 62.3594,368.7813 C60.3125,368.7813 59.0156,367.6875 59.0156,365.9844 L59.0156,364.8906 C59.0156,363.1094 60.2656,361.7969 62,361.7969 C62.5781,361.7969 63.1875,361.9531 63.6563,362.2031 C64.1406,362.4844 64.3125,362.7031 64.4063,363.1094 C64.4688,363.5156 64.5,363.6406 64.6406,363.7656 C64.7813,363.9063 65.0156,364.0156 65.2344,364.0156 C65.5,364.0156 65.7656,363.875 65.9375,363.6563 C66.0469,363.5 66.0781,363.3125 66.0781,362.8906 L66.0781,361.4688 C66.0781,361.0313 66.0625,360.9063 65.9688,360.75 C65.8125,360.4844 65.5313,360.3438 65.2344,360.3438 C64.9375,360.3438 64.7344,360.4375 64.5156,360.75 L64.3438,360.6719 Z " fill="#000000"/><text fill="#000000" font-family="sans-serif" font-size="14" lengthAdjust="spacing" textLength="276" x="76" y="369.8467">PortefeuilleRepositorySpringDataImpl</text></g><!--MD5=[e6bae807ee1954862a3f201b633ae692]
class CourtageResource--><g id="elem_CourtageResource"><rect codeLine="21" fill="#F1F1F1" height="32" id="CourtageResource" rx="2.5" ry="2.5" style="stroke:#181818;stroke-width:0.5;" width="164" x="531" y="85"/><ellipse cx="546" cy="101" fill="#ADD1B2" rx="11" ry="11" style="stroke:#181818;stroke-width:1.0;"/><path d="M548.3438,96.6719 C547.4063,96.2344 546.8125,96.0938 545.9375,96.0938 C543.3125,96.0938 541.3125,98.1719 541.3125,100.8906 L541.3125,102.0156 C541.3125,104.5938 543.4219,106.4844 546.3125,106.4844 C547.5313,106.4844 548.6875,106.1875 549.4375,105.6406 C550.0156,105.2344 550.3438,104.7813 550.3438,104.3906 C550.3438,103.9375 549.9531,103.5469 549.4844,103.5469 C549.2656,103.5469 549.0625,103.625 548.875,103.8125 C548.4219,104.2969 548.4219,104.2969 548.2344,104.3906 C547.8125,104.6563 547.125,104.7813 546.3594,104.7813 C544.3125,104.7813 543.0156,103.6875 543.0156,101.9844 L543.0156,100.8906 C543.0156,99.1094 544.2656,97.7969 546,97.7969 C546.5781,97.7969 547.1875,97.9531 547.6563,98.2031 C548.1406,98.4844 548.3125,98.7031 548.4063,99.1094 C548.4688,99.5156 548.5,99.6406 548.6406,99.7656 C548.7813,99.9063 549.0156,100.0156 549.2344,100.0156 C549.5,100.0156 549.7656,99.875 549.9375,99.6563 C550.0469,99.5 550.0781,99.3125 550.0781,98.8906 L550.0781,97.4688 C550.0781,97.0313 550.0625,96.9063 549.9688,96.75 C549.8125,96.4844 549.5313,96.3438 549.2344,96.3438 C548.9375,96.3438 548.7344,96.4375 548.5156,96.75 L548.3438,96.6719 Z " fill="#000000"/><text fill="#000000" font-family="sans-serif" font-size="14" lengthAdjust="spacing" textLength="132" x="560" y="105.8467">CourtageResource</text></g><!--MD5=[8f24a0ae3e3eeca727ae9e78fab7990f]
class Courtage--><g id="elem_Courtage"><rect codeLine="24" fill="#F1F1F1" height="32" id="Courtage" rx="2.5" ry="2.5" style="stroke:#181818;stroke-width:0.5;" width="98" x="564" y="217"/><ellipse cx="579" cy="233" fill="#ADD1B2" rx="11" ry="11" style="stroke:#181818;stroke-width:1.0;"/><path d="M581.3438,228.6719 C580.4063,228.2344 579.8125,228.0938 578.9375,228.0938 C576.3125,228.0938 574.3125,230.1719 574.3125,232.8906 L574.3125,234.0156 C574.3125,236.5938 576.4219,238.4844 579.3125,238.4844 C580.5313,238.4844 581.6875,238.1875 582.4375,237.6406 C583.0156,237.2344 583.3438,236.7813 583.3438,236.3906 C583.3438,235.9375 582.9531,235.5469 582.4844,235.5469 C582.2656,235.5469 582.0625,235.625 581.875,235.8125 C581.4219,236.2969 581.4219,236.2969 581.2344,236.3906 C580.8125,236.6563 580.125,236.7813 579.3594,236.7813 C577.3125,236.7813 576.0156,235.6875 576.0156,233.9844 L576.0156,232.8906 C576.0156,231.1094 577.2656,229.7969 579,229.7969 C579.5781,229.7969 580.1875,229.9531 580.6563,230.2031 C581.1406,230.4844 581.3125,230.7031 581.4063,231.1094 C581.4688,231.5156 581.5,231.6406 581.6406,231.7656 C581.7813,231.9063 582.0156,232.0156 582.2344,232.0156 C582.5,232.0156 582.7656,231.875 582.9375,231.6563 C583.0469,231.5 583.0781,231.3125 583.0781,230.8906 L583.0781,229.4688 C583.0781,229.0313 583.0625,228.9063 582.9688,228.75 C582.8125,228.4844 582.5313,228.3438 582.2344,228.3438 C581.9375,228.3438 581.7344,228.4375 581.5156,228.75 L581.3438,228.6719 Z " fill="#000000"/><text fill="#000000" font-family="sans-serif" font-size="14" lengthAdjust="spacing" textLength="66" x="593" y="237.8467">Courtage</text></g><!--MD5=[698309b2215fa8d18e9c50d85999959a]
class PortefeuilleRepository--><g id="elem_PortefeuilleRepository"><rect codeLine="25" fill="#F1F1F1" height="32" id="PortefeuilleRepository" rx="2.5" ry="2.5" style="stroke:#181818;stroke-width:0.5;" width="189" x="518.5" y="349"/><ellipse cx="533.5" cy="365" fill="#B4A7E5" rx="11" ry="11" style="stroke:#181818;stroke-width:1.0;"/><path d="M534.4531,361.7813 L536.1719,361.7813 C536.5625,361.7813 536.75,361.75 536.875,361.6719 C537.1406,361.5156 537.2813,361.2344 537.2813,360.9375 C537.2813,360.6719 537.1719,360.4063 536.9375,360.2344 C536.7656,360.125 536.625,360.0938 536.1719,360.0938 L531.0313,360.0938 C530.5938,360.0938 530.4688,360.1094 530.3125,360.2031 C530.0625,360.3594 529.9063,360.6563 529.9063,360.9375 C529.9063,361.2188 530.0469,361.4688 530.2656,361.6406 C530.4219,361.75 530.6094,361.7813 531.0313,361.7813 L532.75,361.7813 L532.75,368.2969 L531.0313,368.2969 C530.5938,368.2969 530.4688,368.3125 530.3125,368.4219 C530.0625,368.5781 529.9063,368.8594 529.9063,369.1563 C529.9063,369.4063 530.0469,369.6719 530.2656,369.8281 C530.4219,369.9531 530.625,370 531.0313,370 L536.1719,370 C536.9219,370 537.2813,369.7188 537.2813,369.1563 C537.2813,368.875 537.1719,368.625 536.9375,368.4531 C536.7656,368.3281 536.625,368.2969 536.1719,368.2969 L534.4531,368.2969 L534.4531,361.7813 Z " fill="#000000"/><text fill="#000000" font-family="sans-serif" font-size="14" font-style="italic" lengthAdjust="spacing" textLength="157" x="547.5" y="369.8467">PortefeuilleRepository</text></g><!--MD5=[e29e418d7f9e45909fe0dffa0f12c198]
class PortefeuilleRepositorySpringDataImpl--><g id="elem_PortefeuilleRepositorySpringDataImpl"><rect codeLine="28" fill="#F1F1F1" height="32" id="PortefeuilleRepositorySpringDataImpl" rx="2.5" ry="2.5" style="stroke:#181818;stroke-width:0.5;" width="308" x="459" y="489"/><ellipse cx="474" cy="505" fill="#ADD1B2" rx="11" ry="11" style="stroke:#181818;stroke-width:1.0;"/><path d="M476.3438,500.6719 C475.4063,500.2344 474.8125,500.0938 473.9375,500.0938 C471.3125,500.0938 469.3125,502.1719 469.3125,504.8906 L469.3125,506.0156 C469.3125,508.5938 471.4219,510.4844 474.3125,510.4844 C475.5313,510.4844 476.6875,510.1875 477.4375,509.6406 C478.0156,509.2344 478.3438,508.7813 478.3438,508.3906 C478.3438,507.9375 477.9531,507.5469 477.4844,507.5469 C477.2656,507.5469 477.0625,507.625 476.875,507.8125 C476.4219,508.2969 476.4219,508.2969 476.2344,508.3906 C475.8125,508.6563 475.125,508.7813 474.3594,508.7813 C472.3125,508.7813 471.0156,507.6875 471.0156,505.9844 L471.0156,504.8906 C471.0156,503.1094 472.2656,501.7969 474,501.7969 C474.5781,501.7969 475.1875,501.9531 475.6563,502.2031 C476.1406,502.4844 476.3125,502.7031 476.4063,503.1094 C476.4688,503.5156 476.5,503.6406 476.6406,503.7656 C476.7813,503.9063 477.0156,504.0156 477.2344,504.0156 C477.5,504.0156 477.7656,503.875 477.9375,503.6563 C478.0469,503.5 478.0781,503.3125 478.0781,502.8906 L478.0781,501.4688 C478.0781,501.0313 478.0625,500.9063 477.9688,500.75 C477.8125,500.4844 477.5313,500.3438 477.2344,500.3438 C476.9375,500.3438 476.7344,500.4375 476.5156,500.75 L476.3438,500.6719 Z " fill="#000000"/><text fill="#000000" font-family="sans-serif" font-size="14" lengthAdjust="spacing" textLength="276" x="488" y="509.8467">PortefeuilleRepositorySpringDataImpl</text></g><!--MD5=[2a9df3f4d6d01f79d5f467494279f0a3]
link classique.Domaine.Courtage to classique.Persistance.PortefeuilleRepositorySpringDataImpl--><g id="link_classique.Domaine.Courtage_classique.Persistance.PortefeuilleRepositorySpringDataImpl"><path codeLine="16" d="M201,249.167 C201,272.553 201,317.448 201,343.639 " fill="none" id="classique.Domaine.Courtage-to-classique.Persistance.PortefeuilleRepositorySpringDataImpl" style="stroke:#181818;stroke-width:1.0;stroke-dasharray:7.0,7.0;"/><polygon fill="#181818" points="201,348.93,205,339.93,201,343.93,197,339.93,201,348.93" style="stroke:#181818;stroke-width:1.0;"/><text fill="#000000" font-family="sans-serif" font-size="13" lengthAdjust="spacing" textLength="37" x="202" y="294.0669">utilise</text></g><!--MD5=[932ea605a50e85d36a09195955e80a96]
link classique.API.CourtageResource to classique.Domaine.Courtage--><g id="link_classique.API.CourtageResource_classique.Domaine.Courtage"><path codeLine="17" d="M201,117.167 C201,140.553 201,185.448 201,211.639 " fill="none" id="classique.API.CourtageResource-to-classique.Domaine.Courtage" style="stroke:#181818;stroke-width:1.0;stroke-dasharray:7.0,7.0;"/><polygon fill="#181818" points="201,216.93,205,207.93,201,211.93,197,207.93,201,216.93" style="stroke:#181818;stroke-width:1.0;"/><text fill="#000000" font-family="sans-serif" font-size="13" lengthAdjust="spacing" textLength="37" x="202" y="162.0669">utilise</text></g><!--MD5=[037dab70b21ef5e6ea53abd792df9c99]
link CourtageResource to Courtage--><g id="link_CourtageResource_Courtage"><path codeLine="30" d="M613,117.167 C613,140.553 613,185.448 613,211.639 " fill="none" id="CourtageResource-to-Courtage" style="stroke:#181818;stroke-width:1.0;stroke-dasharray:7.0,7.0;"/><polygon fill="#181818" points="613,216.93,617,207.93,613,211.93,609,207.93,613,216.93" style="stroke:#181818;stroke-width:1.0;"/><text fill="#000000" font-family="sans-serif" font-size="13" lengthAdjust="spacing" textLength="37" x="614" y="162.0669">utilise</text></g><!--MD5=[3c496331fb430fc8ed0fed28d53632ce]
link Courtage to PortefeuilleRepository--><g id="link_Courtage_PortefeuilleRepository"><path codeLine="31" d="M613,249.167 C613,272.553 613,317.448 613,343.639 " fill="none" id="Courtage-to-PortefeuilleRepository" style="stroke:#181818;stroke-width:1.0;stroke-dasharray:7.0,7.0;"/><polygon fill="#181818" points="613,348.93,617,339.93,613,343.93,609,339.93,613,348.93" style="stroke:#181818;stroke-width:1.0;"/><text fill="#000000" font-family="sans-serif" font-size="13" lengthAdjust="spacing" textLength="37" x="614" y="294.0669">utilise</text></g><!--MD5=[38b9b33b43878a0db2359f8541ac5b33]
reverse link PortefeuilleRepository to PortefeuilleRepositorySpringDataImpl--><g id="link_PortefeuilleRepository_PortefeuilleRepositorySpringDataImpl"><path codeLine="32" d="M613,401.079 C613,429.467 613,468.052 613,488.9874 " fill="none" id="PortefeuilleRepository-backto-PortefeuilleRepositorySpringDataImpl" style="stroke:#181818;stroke-width:1.0;stroke-dasharray:7.0,7.0;"/><polygon fill="none" points="606,401.031,613,381.031,620,401.031,606,401.031" style="stroke:#181818;stroke-width:1.0;"/></g><!--MD5=[4a17e22651524b39175afd4e1ead8612]
@startuml
allowmixing
skinparam packageStyle rectangle
skinparam package.backgroundColor white
hide empty members

namespace "Classique : en couche" as classique {
	namespace API {
		class CourtageResource
	}
	namespace Domaine {
		class Courtage
	}
	namespace Persistance {
		class PortefeuilleRepositorySpringDataImpl
	}
	classique.Domaine.Courtage ..>  classique.Persistance.PortefeuilleRepositorySpringDataImpl : utilise
	classique.API.CourtageResource ..> classique.Domaine.Courtage : utilise
}
package "Centrée sur le métier" as hex {
	package API {
		class CourtageResource
	}
	package Domaine <<Hexagon>> {
		class Courtage
		interface PortefeuilleRepository
	}
	package Persistance {
		class PortefeuilleRepositorySpringDataImpl
	}
	CourtageResource ..> Courtage : utilise
	Courtage ..>  PortefeuilleRepository : utilise
	PortefeuilleRepository <|.. PortefeuilleRepositorySpringDataImpl
}
@enduml

PlantUML version 1.2022.4beta2(Unknown compile time)
(GPL source distribution)
Java Runtime: Java(TM) SE Runtime Environment
JVM: Java HotSpot(TM) 64-Bit Server VM
Default Encoding: UTF-8
Language: en
Country: US
--></g></svg>