<?xml version="1.0" encoding="UTF-8" standalone="no"?><svg xmlns="http://www.w3.org/2000/svg" xmlns:xlink="http://www.w3.org/1999/xlink" contentStyleType="text/css" height="376px" preserveAspectRatio="none" style="width:844px;height:376px;background:#FFFFFF;" version="1.1" viewBox="0 0 844 376" width="844px" zoomAndPan="magnify"><defs/><g><rect height="26.2969" style="stroke:#00000000;stroke-width:1.0;fill:none;" width="71" x="379.5" y="5"/><text fill="#000000" font-family="sans-serif" font-size="14" font-weight="bold" lengthAdjust="spacing" textLength="61" x="384.5" y="22.9951">Étape 1</text><!--MD5=[ea753ca1abf7a94a4cfc8e8263bc1d79]
cluster Tests--><g id="cluster_Tests"><rect fill="#E55039" height="121" rx="2.5" ry="2.5" style="stroke:#181818;stroke-width:1.0;" width="146" x="7" y="88.2969"/><text fill="#FFFFFF" font-family="sans-serif" font-size="14" font-weight="bold" lengthAdjust="spacing" textLength="46" x="57" y="103.292">Tests</text></g><!--MD5=[81d8fddc0472df4f6601fb2b1deb463c]
cluster Domaine--><g id="cluster_Domaine"><path d="M224,206.2969 L300.625,43.2969 L760.375,43.2969 L837,206.2969 L760.375,369.2969 L300.625,369.2969 L224,206.2969 " fill="#FFFFFF" style="stroke:#181818;stroke-width:1.0;"/><text fill="#000000" font-family="sans-serif" font-size="14" font-weight="bold" lengthAdjust="spacing" textLength="70" x="495.5" y="58.292">Domaine</text></g><!--MD5=[67f432cef3e5a62b9f5e3b502eaa3775]
cluster Port primaire--><g id="cluster_Port primaire"><rect fill="#FFFFFF" height="125" rx="2.5" ry="2.5" style="stroke:#000000;stroke-width:1.5;" width="428" x="248" y="86.2969"/><text fill="#000000" font-family="sans-serif" font-size="14" font-weight="bold" lengthAdjust="spacing" textLength="108" x="408" y="101.292">Port primaire</text></g><!--MD5=[7372c784d7525e52e863be2b44848b63]
entity stepDefs--><g id="elem_stepDefs"><rect fill="#F8C291" height="68.8906" rx="2.5" ry="2.5" style="stroke:#181818;stroke-width:0.5;" width="114" x="23" y="123.7969"/><text fill="#000000" font-family="sans-serif" font-size="14" lengthAdjust="spacing" textLength="73" x="33" y="146.792">Cucumber</text><text fill="#000000" font-family="sans-serif" font-size="14" lengthAdjust="spacing" textLength="94" x="33" y="163.0889">Domain Step</text><text fill="#000000" font-family="sans-serif" font-size="14" lengthAdjust="spacing" textLength="79" x="33" y="179.3857">Definitions</text></g><!--MD5=[aea9443ce97642cf67741219a9cddff6]
class PortefeuilleDejaExistantException--><g id="elem_PortefeuilleDejaExistantException"><rect codeLine="27" fill="#F1F1F1" height="32" id="PortefeuilleDejaExistantException" rx="2.5" ry="2.5" style="stroke:#181818;stroke-width:0.5;" width="280" x="322" y="230.2969"/><ellipse cx="337" cy="246.2969" fill="#ADD1B2" rx="11" ry="11" style="stroke:#181818;stroke-width:1.0;"/><path d="M339.3438,241.9688 C338.4063,241.5313 337.8125,241.3906 336.9375,241.3906 C334.3125,241.3906 332.3125,243.4688 332.3125,246.1875 L332.3125,247.3125 C332.3125,249.8906 334.4219,251.7813 337.3125,251.7813 C338.5313,251.7813 339.6875,251.4844 340.4375,250.9375 C341.0156,250.5313 341.3438,250.0781 341.3438,249.6875 C341.3438,249.2344 340.9531,248.8438 340.4844,248.8438 C340.2656,248.8438 340.0625,248.9219 339.875,249.1094 C339.4219,249.5938 339.4219,249.5938 339.2344,249.6875 C338.8125,249.9531 338.125,250.0781 337.3594,250.0781 C335.3125,250.0781 334.0156,248.9844 334.0156,247.2813 L334.0156,246.1875 C334.0156,244.4063 335.2656,243.0938 337,243.0938 C337.5781,243.0938 338.1875,243.25 338.6563,243.5 C339.1406,243.7813 339.3125,244 339.4063,244.4063 C339.4688,244.8125 339.5,244.9375 339.6406,245.0625 C339.7813,245.2031 340.0156,245.3125 340.2344,245.3125 C340.5,245.3125 340.7656,245.1719 340.9375,244.9531 C341.0469,244.7969 341.0781,244.6094 341.0781,244.1875 L341.0781,242.7656 C341.0781,242.3281 341.0625,242.2031 340.9688,242.0469 C340.8125,241.7813 340.5313,241.6406 340.2344,241.6406 C339.9375,241.6406 339.7344,241.7344 339.5156,242.0469 L339.3438,241.9688 Z " fill="#000000"/><text fill="#000000" font-family="sans-serif" font-size="14" lengthAdjust="spacing" textLength="248" x="351" y="251.1436">PortefeuilleDejaExistantException</text></g><!--MD5=[8f24a0ae3e3eeca727ae9e78fab7990f]
class Courtage--><g id="elem_Courtage"><rect codeLine="28" fill="#B8E994" height="32" id="Courtage" rx="2.5" ry="2.5" style="stroke:#181818;stroke-width:0.5;" width="98" x="723" y="142.2969"/><ellipse cx="738" cy="158.2969" fill="#ADD1B2" rx="11" ry="11" style="stroke:#181818;stroke-width:1.0;"/><path d="M740.3438,153.9688 C739.4063,153.5313 738.8125,153.3906 737.9375,153.3906 C735.3125,153.3906 733.3125,155.4688 733.3125,158.1875 L733.3125,159.3125 C733.3125,161.8906 735.4219,163.7813 738.3125,163.7813 C739.5313,163.7813 740.6875,163.4844 741.4375,162.9375 C742.0156,162.5313 742.3438,162.0781 742.3438,161.6875 C742.3438,161.2344 741.9531,160.8438 741.4844,160.8438 C741.2656,160.8438 741.0625,160.9219 740.875,161.1094 C740.4219,161.5938 740.4219,161.5938 740.2344,161.6875 C739.8125,161.9531 739.125,162.0781 738.3594,162.0781 C736.3125,162.0781 735.0156,160.9844 735.0156,159.2813 L735.0156,158.1875 C735.0156,156.4063 736.2656,155.0938 738,155.0938 C738.5781,155.0938 739.1875,155.25 739.6563,155.5 C740.1406,155.7813 740.3125,156 740.4063,156.4063 C740.4688,156.8125 740.5,156.9375 740.6406,157.0625 C740.7813,157.2031 741.0156,157.3125 741.2344,157.3125 C741.5,157.3125 741.7656,157.1719 741.9375,156.9531 C742.0469,156.7969 742.0781,156.6094 742.0781,156.1875 L742.0781,154.7656 C742.0781,154.3281 742.0625,154.2031 741.9688,154.0469 C741.8125,153.7813 741.5313,153.6406 741.2344,153.6406 C740.9375,153.6406 740.7344,153.7344 740.5156,154.0469 L740.3438,153.9688 Z " fill="#000000"/><text fill="#000000" font-family="sans-serif" font-size="14" lengthAdjust="spacing" textLength="66" x="752" y="163.1436">Courtage</text></g><!--MD5=[4d94ef589ea4e6d49ac79f16ccd71851]
class Portefeuille--><g id="elem_Portefeuille"><rect codeLine="29" fill="#F8C291" height="56.2969" id="Portefeuille" rx="2.5" ry="2.5" style="stroke:#181818;stroke-width:0.5;" width="116" x="404" y="297.2969"/><ellipse cx="419" cy="313.2969" fill="#ADD1B2" rx="11" ry="11" style="stroke:#181818;stroke-width:1.0;"/><path d="M421.3438,308.9688 C420.4063,308.5313 419.8125,308.3906 418.9375,308.3906 C416.3125,308.3906 414.3125,310.4688 414.3125,313.1875 L414.3125,314.3125 C414.3125,316.8906 416.4219,318.7813 419.3125,318.7813 C420.5313,318.7813 421.6875,318.4844 422.4375,317.9375 C423.0156,317.5313 423.3438,317.0781 423.3438,316.6875 C423.3438,316.2344 422.9531,315.8438 422.4844,315.8438 C422.2656,315.8438 422.0625,315.9219 421.875,316.1094 C421.4219,316.5938 421.4219,316.5938 421.2344,316.6875 C420.8125,316.9531 420.125,317.0781 419.3594,317.0781 C417.3125,317.0781 416.0156,315.9844 416.0156,314.2813 L416.0156,313.1875 C416.0156,311.4063 417.2656,310.0938 419,310.0938 C419.5781,310.0938 420.1875,310.25 420.6563,310.5 C421.1406,310.7813 421.3125,311 421.4063,311.4063 C421.4688,311.8125 421.5,311.9375 421.6406,312.0625 C421.7813,312.2031 422.0156,312.3125 422.2344,312.3125 C422.5,312.3125 422.7656,312.1719 422.9375,311.9531 C423.0469,311.7969 423.0781,311.6094 423.0781,311.1875 L423.0781,309.7656 C423.0781,309.3281 423.0625,309.2031 422.9688,309.0469 C422.8125,308.7813 422.5313,308.6406 422.2344,308.6406 C421.9375,308.6406 421.7344,308.7344 421.5156,309.0469 L421.3438,308.9688 Z " fill="#000000"/><text fill="#000000" font-family="sans-serif" font-size="14" lengthAdjust="spacing" textLength="84" x="433" y="318.1436">Portefeuille</text><line style="stroke:#181818;stroke-width:0.5;" x1="405" x2="519" y1="329.2969" y2="329.2969"/><text fill="#000000" font-family="sans-serif" font-size="14" lengthAdjust="spacing" textLength="80" x="410" y="346.292">String nom</text></g><!--MD5=[187da8343eacb1c1d37e24ed685d15af]
class ServiceCourtage--><g id="elem_ServiceCourtage"><rect codeLine="33" fill="#B8E994" height="72.5938" id="ServiceCourtage" rx="2.5" ry="2.5" style="stroke:#181818;stroke-width:0.5;" width="396" x="264" y="121.7969"/><ellipse cx="398.25" cy="137.7969" fill="#B4A7E5" rx="11" ry="11" style="stroke:#181818;stroke-width:1.0;"/><path d="M399.2031,134.5781 L400.9219,134.5781 C401.3125,134.5781 401.5,134.5469 401.625,134.4688 C401.8906,134.3125 402.0313,134.0313 402.0313,133.7344 C402.0313,133.4688 401.9219,133.2031 401.6875,133.0313 C401.5156,132.9219 401.375,132.8906 400.9219,132.8906 L395.7813,132.8906 C395.3438,132.8906 395.2188,132.9063 395.0625,133 C394.8125,133.1563 394.6563,133.4531 394.6563,133.7344 C394.6563,134.0156 394.7969,134.2656 395.0156,134.4375 C395.1719,134.5469 395.3594,134.5781 395.7813,134.5781 L397.5,134.5781 L397.5,141.0938 L395.7813,141.0938 C395.3438,141.0938 395.2188,141.1094 395.0625,141.2188 C394.8125,141.375 394.6563,141.6563 394.6563,141.9531 C394.6563,142.2031 394.7969,142.4688 395.0156,142.625 C395.1719,142.75 395.375,142.7969 395.7813,142.7969 L400.9219,142.7969 C401.6719,142.7969 402.0313,142.5156 402.0313,141.9531 C402.0313,141.6719 401.9219,141.4219 401.6875,141.25 C401.5156,141.125 401.375,141.0938 400.9219,141.0938 L399.2031,141.0938 L399.2031,134.5781 Z " fill="#000000"/><text fill="#000000" font-family="sans-serif" font-size="14" font-style="italic" lengthAdjust="spacing" textLength="119" x="418.75" y="142.6436">ServiceCourtage</text><line style="stroke:#181818;stroke-width:0.5;" x1="265" x2="659" y1="153.7969" y2="153.7969"/><text fill="#000000" font-family="sans-serif" font-size="14" lengthAdjust="spacing" textLength="384" x="270" y="170.792">Portefeuille creerPortefeuille(String nomPortefeuille)</text><text fill="#000000" font-family="sans-serif" font-size="14" lengthAdjust="spacing" textLength="269" x="270" y="187.0889">boolean gere(String nomPortefeuille)</text></g><!--MD5=[026d1740de6b1c0d224da24d56cdf520]
reverse link ServiceCourtage to Courtage--><g id="link_ServiceCourtage_Courtage"><path codeLine="40" d="M680.324,158.2969 C695.791,158.2969 710.226,158.2969 722.83,158.2969 " fill="none" id="ServiceCourtage-backto-Courtage" style="stroke:#181818;stroke-width:1.0;stroke-dasharray:7.0,7.0;"/><polygon fill="none" points="680.24,165.2969,660.24,158.2969,680.24,151.2969,680.24,165.2969" style="stroke:#181818;stroke-width:1.0;"/></g><!--MD5=[cb6fe964e3efd7ee3874f9b157a2c407]
link stepDefs to ServiceCourtage--><g id="link_stepDefs_ServiceCourtage"><path codeLine="41" d="M137.07,158.2969 C169.97,158.2969 213.771,158.2969 258.499,158.2969 " fill="none" id="stepDefs-to-ServiceCourtage" style="stroke:#181818;stroke-width:1.0;stroke-dasharray:7.0,7.0;"/><polygon fill="#181818" points="263.674,158.2969,254.674,154.2969,258.674,158.2969,254.674,162.2969,263.674,158.2969" style="stroke:#181818;stroke-width:1.0;"/><text fill="#000000" font-family="sans-serif" font-size="13" lengthAdjust="spacing" textLength="37" x="170" y="154.3638">utilise</text></g><!--MD5=[195b11a8ea858d56bf8cdef16df94fa4]
@startuml
skinparam packageStyle rectangle
skinparam package.backgroundColor white
hide empty members
hide stereotype
left to right direction
skinparam useBetaStyle true

<style>
.tests {
	BackgroundColor #e55039
	FontColor #FFFFFF
}
.ajout {
	BackgroundColor #b8e994
}
.modif {
	BackgroundColor #f8c291
}
</style>

title Étape 1
rectangle Tests <<tests>> {
	rectangle "Cucumber\nDomain Step\nDefinitions" as stepDefs <<modif>> {
	}
}
package Domaine <<Hexagon>> {
	class PortefeuilleDejaExistantException
	class Courtage <<ajout>>
	class Portefeuille <<modif>> {
		String nom
	}
	package "Port primaire" {
		interface ServiceCourtage <<ajout>> {
			Portefeuille creerPortefeuille(String nomPortefeuille)
			boolean gere(String nomPortefeuille)
		}
	}
}

ServiceCourtage <|.. Courtage
stepDefs ..> ServiceCourtage : utilise
@enduml

PlantUML version 1.2022.4beta2(Unknown compile time)
(GPL source distribution)
Java Runtime: Java(TM) SE Runtime Environment
JVM: Java HotSpot(TM) 64-Bit Server VM
Default Encoding: UTF-8
Language: en
Country: US
--></g></svg>